<svg xmlns="http://www.w3.org/2000/svg" viewBox="0 0 512 512" width="512" height="512">
  <defs>
    <!-- 翅膀淬火渐变：粉 -> 橙 -> 金 -->
    <linearGradient id="wingGrad" x1="0%" y1="0%" x2="100%" y2="100%">
      <stop offset="0%" stop-color="#ec4899"/>
      <stop offset="45%" stop-color="#f97316"/>
      <stop offset="100%" stop-color="#fbbf24"/>
    </linearGradient>
    <!-- 翅膀暗部渐变（层叠阴影） -->
    <linearGradient id="wingGradDark" x1="0%" y1="0%" x2="100%" y2="100%">
      <stop offset="0%" stop-color="#be185d"/>
      <stop offset="50%" stop-color="#c2410c"/>
      <stop offset="100%" stop-color="#d97706"/>
    </linearGradient>
    <!-- 核心发光 -->
    <radialGradient id="coreGlow" cx="50%" cy="50%" r="50%">
      <stop offset="0%" stop-color="#fffbeb"/>
      <stop offset="40%" stop-color="#fde68a"/>
      <stop offset="100%" stop-color="#f59e0b" stop-opacity="0"/>
    </radialGradient>
    <!-- 翅膀羽脉细节 -->
    <linearGradient id="veinGrad" x1="50%" y1="50%" x2="0%" y2="0%">
      <stop offset="0%" stop-color="#fef3c7" stop-opacity="0.9"/>
      <stop offset="100%" stop-color="#fef3c7" stop-opacity="0"/>
    </linearGradient>
  </defs>

  <!-- 背景圆角方块（深色，衬托淬火） -->
  <rect width="512" height="512" rx="112" fill="#1a0f1a"/>

  <!-- 核心光晕（蝴蝶包裹中的发光体） -->
  <circle cx="256" cy="256" r="80" fill="url(#coreGlow)"/>

  <!-- ====== 多翼蝴蝶：对称翅膀，向内包裹 ====== -->
  <!-- 外层大翼（最远，最大，向内收拢） -->
  <g transform="translate(256 256)">
    <!-- 左外翼 -->
    <path d="M0 0 C -60 -40, -180 -60, -210 -10 C -200 40, -120 50, -40 30 C -20 20, -8 10, 0 0 Z"
          fill="url(#wingGradDark)" opacity="0.85"/>
    <path d="M0 0 C -50 -30, -150 -45, -175 -5 C -168 30, -100 38, -35 22 Z"
          fill="url(#wingGrad)" opacity="0.9"/>
    <!-- 左外翼羽脉 -->
    <path d="M0 0 Q -80 -20 -160 -8" stroke="url(#veinGrad)" stroke-width="3" fill="none"/>
    <path d="M0 0 Q -70 5 -140 20" stroke="url(#veinGrad)" stroke-width="2.5" fill="none"/>

    <!-- 右外翼（镜像） -->
    <path d="M0 0 C 60 -40, 180 -60, 210 -10 C 200 40, 120 50, 40 30 C 20 20, 8 10, 0 0 Z"
          fill="url(#wingGradDark)" opacity="0.85"/>
    <path d="M0 0 C 50 -30, 150 -45, 175 -5 C 168 30, 100 38, 35 22 Z"
          fill="url(#wingGrad)" opacity="0.9"/>
    <path d="M0 0 Q 80 -20 160 -8" stroke="url(#veinGrad)" stroke-width="3" fill="none"/>
    <path d="M0 0 Q 70 5 140 20" stroke="url(#veinGrad)" stroke-width="2.5" fill="none"/>

    <!-- 中层翼（向内收一层） -->
    <path d="M0 -10 C -40 -60, -120 -90, -150 -60 C -150 -20, -90 -10, -25 -25 Z"
          fill="url(#wingGrad)" opacity="0.95"/>
    <path d="M0 -10 C 40 -60, 120 -90, 150 -60 C 150 -20, 90 -10, 25 -25 Z"
          fill="url(#wingGrad)" opacity="0.95"/>

    <!-- 下翼（垂落，增强包裹感） -->
    <path d="M0 10 C -35 50, -100 80, -120 110 C -90 120, -40 100, -10 50 Z"
          fill="url(#wingGradDark)" opacity="0.9"/>
    <path d="M0 10 C 35 50, 100 80, 120 110 C 90 120, 40 100, 10 50 Z"
          fill="url(#wingGradDark)" opacity="0.9"/>

    <!-- 蝴蝶身体（中轴，被翅膀包裹） -->
    <ellipse cx="0" cy="0" rx="14" ry="48" fill="#1a0f1a"/>
    <!-- 头部 -->
    <circle cx="0" cy="-52" r="12" fill="#1a0f1a"/>
    <!-- 触角 -->
    <path d="M -4 -60 Q -20 -78 -30 -86" stroke="#1a0f1a" stroke-width="3" fill="none" stroke-linecap="round"/>
    <path d="M 4 -60 Q 20 -78 30 -86" stroke="#1a0f1a" stroke-width="3" fill="none" stroke-linecap="round"/>
    <circle cx="-30" cy="-86" r="3.5" fill="#fbbf24"/>
    <circle cx="30" cy="-86" r="3.5" fill="#fbbf24"/>

    <!-- 核心发光点（身体中心，淬火的心） -->
    <circle cx="0" cy="0" r="10" fill="#fef3c7"/>
    <circle cx="0" cy="0" r="6" fill="#fbbf24"/>
  </g>
</svg>
